# xmcd
#
# Track frame offsets: 
#        150
#        20285
#        36860
#        54646
#        68279
#        84924
#        93564
#        107767
#        127246
#        148118
#        157998
#        174157
#        186903
#        205682
#        213723
#
# Disc length: 3114 seconds
#
# Revision: 0
# Processed by: cddbd v1.4PL0 Copyright (c) Steve Scherf et al.
# Submitted via: ExactAudioCopy v0.90a11
#
DISCID=cb0c280f
DTITLE=Sally Timms - Cowboy Sally's Twilight Laments......for Lost Buc
DTITLE=karoos
DYEAR=1900
DGENRE=
TTITLE0=Dreaming Cowboy
TTITLE1=The Sad Milkman
TTITLE2=Dark Sun
TTITLE3=In Bristol Town One Bright Day
TTITLE4=Sweetheart Waltz
TTITLE5=Showbird
TTITLE6=Cry Baby Cry
TTITLE7=When The Roses Bloom Again
TTITLE8=Cancion Para Mi Padre
TTITLE9=Rock Me To Sleep
TTITLE10=Seminole Wind
TTITLE11=Drunk By Noon
TTITLE12=Old Flames Can't Hold A Candle To You
TTITLE13=Tennessee Waltz
TTITLE14=Long Black Veil
EXTD=
EXTT0=
EXTT1=
EXTT2=
EXTT3=
EXTT4=
EXTT5=
EXTT6=
EXTT7=
EXTT8=
EXTT9=
EXTT10=
EXTT11=
EXTT12=
EXTT13=
EXTT14=
PLAYORDER=
